<mxfile host="app.diagrams.net" modified="2023-04-07T10:26:38.983Z" agent="Mozilla/5.0 (Macintosh; Intel Mac OS X 10_15_7) AppleWebKit/537.36 (KHTML, like Gecko) Chrome/111.0.0.0 Safari/537.36" etag="fQAslRm4aQRi8l9_o--x" version="21.1.5" type="device">
  <diagram name="第 1 页" id="1uRIm2XjKlhIVZUX-FpQ">
    <mxGraphModel dx="1434" dy="683" grid="1" gridSize="10" guides="1" tooltips="1" connect="1" arrows="1" fold="1" page="1" pageScale="1" pageWidth="827" pageHeight="1169" math="0" shadow="0">
      <root>
        <mxCell id="0" />
        <mxCell id="1" parent="0" />
        <mxCell id="yW331z_t8bSA6Lrj6Iq1-3" value="" style="shape=image;verticalLabelPosition=bottom;labelBackgroundColor=default;verticalAlign=top;aspect=fixed;imageAspect=0;image=data:image/png,iVBORw0KGgoAAAANSUhEUgAAAxoAAACuCAIAAAA+kez7AAAKqGlDQ1BJQ0MgUHJvZmlsZQAASImVlwdQk9kWgO//p4eEFoiAlNCbIJ0AUkIPvTcbIQkQSgyBIMUuiyuwooiIgCKoVAVXpchaEcW2KDawLsgioqyLBVCxvB8Ywu6+ee/NOzNn7jcn555yc+/M+QEgS7MEgiRYGoBkfpowyMOZFhEZRcONAAjAgAJUgCGLnSpgBAT4AETm17/L5APEG5G7RjOx/v33/yoyHG4qGwAoAOEYTio7GeFTiI6xBcI0AFAHEbvm2jTBDHchLCdECkS4f4bj5nhshmNmGQ1mfUKCXBCWAwBPYrGEcQCQaIidls6OQ+KQnBA24XN4fIQFCDskJ6/hIHwcYT3EB7GRZuLTY/4SJ+5vMWPEMVmsODHP9TIreFdeqiCJlfl/Hsf/luQk0XwOHURJ8ULPoJmekTPrT1zjLWZ+jJ//PPM4s/6zHC/yDJ1ndqpL1DxzWK7e4r1Jfj7zHMtzZ4rjpDFD5pmb6hY8z8I1QeJcsUIXxjyzhAt5RYmhYns8lymOnxUfEj7P6bwwv3lOTQz2XvBxEduFoiBx/Vy+h/NCXndx78mpf+mXxxTvTYsP8RT3zlqon8tnLMRMjRDXxuG6ui34hIr9BWnO4lyCpACxPzfJQ2xPTQ8W701DLuTC3gDxGSawvALmGQQAT+ADaMAMWAMr4AboICyNm5E204jLGkGmkBcXn0ZjIC+MS2Py2cZLaGYmZuYAzLzXuevwnjr7DiHq9QWbAPlfbNIBgFkLtlWuALRpAiCVsmDTQ+62VCwAF5ezRcL0OdvsW8IAIpBCKlQEqkAT6AEjpD4rYAeckAq9gD8IAZFgFWCDeJAMhGAtWAc2g1yQD3aCPaAMVIJDoA4cAydAGzgDLoIr4Aa4De6Dx2AADIPXYBxMgmkIgnAQGaJAipAapA0ZQmYQHXKA3CAfKAiKhKKhOIgPiaB10FYoHyqCyqAqqB76GToNXYSuQb3QQ2gQGoXeQZ9hFEyC5WAVWAdeCtNhBuwNh8Ar4Tg4Bc6Cc+AdcClcDR+FW+GL8A34PjwAv4YnUAAlgaKi1FFGKDrKBeWPikLFooSoDag8VAmqGtWE6kB1o+6iBlBjqE9oLJqCpqGN0HZoT3Qomo1OQW9AF6DL0HXoVnQX+i56ED2O/oYhY5QxhhhbDBMTgYnDrMXkYkowNZgWzGXMfcwwZhKLxVKxulhrrCc2EpuAzcYWYPdjm7EXsL3YIewEDodTxBni7HH+OBYuDZeL24c7ijuPu4Mbxn3ES+DV8GZ4d3wUno/fgi/BN+DP4e/gR/DTBGmCNsGW4E/gEDIJhYTDhA7CLcIwYZooQ9Ql2hNDiAnEzcRSYhPxMvEJ8b2EhISGhI1EoARPYpNEqcRxiasSgxKfSLIkA5ILaQVJRNpBqiVdID0kvSeTyTpkJ3IUOY28g1xPvkR+Rv4oSZE0lmRKciQ3SpZLtkrekXwjRZDSlmJIrZLKkiqROil1S2pMmiCtI+0izZLeIF0ufVq6T3pChiJjKuMvkyxTINMgc03mpSxOVkfWTZYjmyN7SPaS7BAFRdGkuFDYlK2Uw5TLlGE5rJyuHFMuQS5f7phcj9y4vKy8hXyYfIZ8ufxZ+QEqiqpDZVKTqIXUE9QH1M+LVBYxFnEXbV/UtOjOoimFxQpOClyFPIVmhfsKnxVpim6KiYq7FNsUnyqhlQyUApXWKh1Quqw0tlhusd1i9uK8xScWP1KGlQ2Ug5SzlQ8p31SeUFFV8VARqOxTuaQypkpVdVJNUC1WPac6qkZRc1DjqRWrnVd7RZOnMWhJtFJaF21cXVndU12kXqXeoz6toasRqrFFo1njqSZRk64Zq1ms2ak5rqWm5au1TqtR65E2QZuuHa+9V7tbe0pHVydcZ5tOm85LXQVdpm6WbqPuEz2ynqNeil613j19rD5dP1F/v/5tA9jA0iDeoNzgliFsaGXIM9xv2LsEs8RmCX9J9ZI+I5IRwyjdqNFo0Jhq7GO8xbjN+M1SraVRS3ct7V76zcTSJMnksMljU1lTL9Mtph2m78wMzNhm5Wb3zMnm7uYbzdvN31oYWnAtDlj0W1IsfS23WXZafrWythJaNVmNWmtZR1tXWPfR5egB9AL6VRuMjbPNRpszNp9srWzTbE/Y/mlnZJdo12D3cpnuMu6yw8uG7DXsWfZV9gMONIdoh4MOA47qjizHasfnTppOHKcapxGGPiOBcZTxxtnEWejc4jzlYuuy3uWCK8rVwzXPtcdN1i3UrcztmbuGe5x7o/u4h6VHtscFT4ynt+cuzz6mCpPNrGeOe1l7rffq8iZ5B3uXeT/3MfAR+nT4wr5evrt9n/hp+/H92vyBP9N/t//TAN2AlIBfArGBAYHlgS+CTIPWBXUHU4JXBzcET4Y4hxSGPA7VCxWFdoZJha0Iqw+bCncNLwofiFgasT7iRqRSJC+yPQoXFRZVEzWx3G35nuXDKyxX5K54sFJ3ZcbKa6uUViWtOrtaajVr9cloTHR4dEP0F5Y/q5o1EcOMqYgZZ7uw97Jfc5w4xZxRrj23iDsSax9bFPsyzj5ud9xovGN8SfwYz4VXxnub4JlQmTCV6J9Ym/g9KTypORmfHJ18mi/LT+R3rVFdk7GmV2AoyBUMpNim7EkZF3oLa1Kh1JWp7WlyyGB0U6Qn+kE0mO6QXp7+cW3Y2pMZMhn8jJuZBpnbM0ey3LOOZKOz2dmd69TXbV43uJ6xvmoDtCFmQ+dGzY05G4c3eWyq20zcnLj51y0mW4q2fNgavrUjRyVnU87QDx4/NOZK5gpz+7bZbav8Ef0j78ee7ebb923/lsfJu55vkl+S/6WAXXD9J9OfSn/6viN2R0+hVeGBndid/J0PdjnuqiuSKcoqGtrtu7u1mFacV/xhz+o910osSir3EveK9g6U+pS279Pat3Pfl7L4svvlzuXNFcoV2yum9nP23zngdKCpUqUyv/LzQd7B/iqPqtZqneqSQ9hD6YdeHA473H2EfqS+Rqkmv+ZrLb92oC6orqveur6+QbmhsBFuFDWOHl1x9PYx12PtTUZNVc3U5vzj4Ljo+Kufo39+cML7ROdJ+smmU9qnKlooLXmtUGtm63hbfNtAe2R772mv050ddh0tvxj/UntG/Uz5WfmzheeI53LOfT+fdX7iguDC2MW4i0OdqzsfX4q4dK8rsKvnsvflq1fcr1zqZnSfv2p/9cw122unr9Ovt92wutF60/Jmy6+Wv7b0WPW03rK+1X7b5nZH77Lec3cc71y863r3yj3mvRv3/e73Pgh90N+3om+gn9P/8mHSw7eP0h9NP970BPMk76n005Jnys+qf9P/rXnAauDsoOvgzefBzx8PsYde/576+5fhnBfkFyUjaiP1L81enhl1H739avmr4deC19NjuX/I/FHxRu/NqT+d/rw5HjE+/Fb49vu7gveK72s/WHzonAiYeDaZPDk9lfdR8WPdJ/qn7s/hn0em137BfSn9qv+145v3tyffk79/F7CErNlRAIUoHIvMB+9qASBHAkC5DQBx+dw8PSvQ3DfALIH/xHMz96xYAXDECYDQTQD4Imv1BQB0EZZEdGYkCnECsLm5WOdn39k5fUYYJGRWKQQA97B/Mhv8U+Zm+L/U/c8VzES1AP9c/wW9ggOxP2g69gAAADhlWElmTU0AKgAAAAgAAYdpAAQAAAABAAAAGgAAAAAAAqACAAQAAAABAAADGqADAAQAAAABAAAArgAAAABgwOeGAAArA0lEQVR4Ae2dCXhdZ3nntetq3yVLlm3Z8m4nTpPgLKaQQFgawkw7UOYhmTBNCwO0PHSbYSihhQ7DMB0ayjws0zaUlCck7TBDYEhJEwgJDTHZVy9JbMu2LMm29l26ku4y/3O+q+sr3UV3O1dXur9rPcffPefbzu+ce87/vN/7vSff7/fn8YEABCAAAQhAAAIQSJZAQbIFKQcBCEAAAhCAAAQgYBFATnEeQAACEIAABCAAgZQIIKdSwkdhCEAAAhCAAAQggJziHIAABCAAAQhAAAIpEUBOpYSPwhCAAAQgAAEIQAA5xTkAAQhAAAIQgAAEUiKAnEoJH4UhAAEIQAACEIAAcopzAAIQgAAEIAABCKREADmVEj4KQwACEIAABCAAAeQU5wAEIAABCEAAAhBIiQByKiV8FIYABCAAAQhAAALIKc4BCEAAAhCAAAQgkBIB5FRK+CgMAQhAAAIQgAAEkFOcAxCAAAQgAAEIQCAlAsiplPBRGAIQgAAEIJA9BHw+f/Z0Jqd6gpzKqcPNzkIAAhCAwLolcOcPjlz7pZ+9dG503e5hFu8YciqLDw5dgwAEIAABCMRN4KEjFwYm5/79t5892jcedyEypocAcio9HKkFAhCAAAQgsIoEpuY8ozML6sCE23P73z1zon9yFTuTg00jp3LwoLPLEIAABCCw3gj0js5ol6pcRQfaa6Srbr37mdODU+ttJ7N4f5BTWXxw6BoEIAABCEAgPgI9I7PK2NFQ8Z3fPrintXpoak6K6tywpbH4ZIAAcioDkGkCAhCAAAQg4CwBY51qryurLS/57u8c3N5ceXHCfeu3nj4/ZsksPk4TQE45TZj6IQABCEAAAo4TMNapTfXlaqmhsvT+D1/T0VDeOzp7691PD0y4HW8+5xtATuX8KQAACEAAAhBY+wSC1imzK83Vrvs+cu3G2rKzwzO3fuuZ4am5tb+LWb0HyKmsPjx0DgIQgAAEIBAPgZ5Ra1BPg33BzNJS//CRazdUu04NTH3lpyeC60k4QQA55QRV6oQABCAAAQhklICxTm2qswb7gp/NDeV/9t69+nqESFRBKM4kkFPOcKVWCEAAAhCAQKYIjM8sTLo9am1jiHXKNL6zpUoJGah4/4yjRwM55SheKocABCAAAQg4TqDHDjrVWFlSXlK0rLEtDeVFBfkz894LOKQvQ5PWr8iptOKkMghAAAIQgEDGCZiRvo1LR/pML4oLC7Y2Vih9kjjpTh4X5JSTdKkbAhCAAAQg4DwBBURQI5vCRvpMy4pBpYTG+5zvSO62gJzK3WPPnkMAAhCAwPog0DNiRT9vj2Sd0vodyCnnDzNyynnGtAABCEAAAhBwkkDAOlV/KUpCaGudyKlQHM6kkVPOcKVWCEAAAhCAQKYIGFf06NYpa3LfyYEpv9+fqR7lXDvIqZw75OwwBCAAAQisJwISSbF9p7Y1VeTn543PLgxNza+nHc+qfUFOZdXhoDMQgAAEIACBxAiMziwoDoLKtNVGHuxzFRea8J54oydGNpHcyKlEaJEXAhCAAAQgkGUEjB96S3WpZFO0ri16o09Gy8D6FAkgp1IESHEIQAACEIDAahIwI33RHKdMz4iV4PQRQk45TZj6IQABCEAAAg4SMH7o0YJOmYaNnJI3uoP9yO2qkVO5ffzZewhAAAIQWOMETEh0rFOrexiRU6vLn9YhAAEIQAACKRHoGbFDokcJOmWqNtapgck5ze9LqTEKRyGAnIoChtUQgAAEIACBtUAgHutUlat4Q7VLe8PkPocOKXLKIbBUCwEIQAACEHCcQEjQqfLYjRkDVRfuU7ExJbsVOZUsOcpBAAIQgAAEVpvA4NTcnMdXkJ+3ocYyPsX4LHqjEyshBqTkNyGnkmdHSQhAAAIQgMDqEjCOUxrIKyla4YZu5BSDfQ4drxXoO9Qq1UIAAhCAAAQgkDqBgONU/QojfWrIRPIkVkLqzCPWgJyKiIWVEIAABCAAgTVAYDGGZ+TXy4TugLFO9Y3NztpvpAndRDp1Asip1BlSAwQgAAEIQGB1CBjrlHklX+weNFSW1leU+P15XYME84yNKpmtyKlkqFEGAhCAAAQgkA0EjO9Ue93K1in1dntTpZa4Tzlx4JBTTlClTghAAAIQgEAmCASsU3H4Tqk3nc3IKacOCnLKKbLUCwEIQAACEHCUgNfnly+UmojTOrXojU6shPQfFuRU+plSIwQgAAEIQCADBAYm3Qtef1FBvol4vmKLxEpYEVHSGZBTSaOjIAQgAAEIQGA1CRjHqdZaV1FhXHfzHS3WYF/38My8x7ea/V6Pbcd1ANbjjrNPEIAABCAAgbVNIP5pfWY/ZcSqLC3y+Pzdw9Nre8+zr/fIqew7JvQIAhCAAAQgEAeBhKb1qb78/Hy80ePgmkwW5FQy1CgDAQhAAAIQWHUCiVqn1GETK4HY6Gk/dsiptCOlQghAAAIQgEAmCPSMzqiZ9vq4gk6ZDuGN7tCBQU45BJZqIQABCEAAAs4SMG+YiSckerAfi7ESCIweRJKeBHIqPRypBQIQgAAEIJBJAh6v78K4Wy221638/uNgx4x16vTglGJWBVeSSJ0Acip1htQAAQhAAAIQyDQBaSlJopLCguaq0vjb3lRfXlJUMOfx9Y1a8T/5pIsAcipdJKkHAhCAAAQgkDkCxnFqY11ZQUF+/K0WFuRva6xQ/pMDxEaPH9vKOZFTKzMiBwQgAAEIQCDbCBjHqThfLxPa+R0tVfrKi5BDmaSeRk6lzpAaIAABCEAAApkmsCinEnCcMl0kVoIThwo55QRV6oQABCAAAQg4S6B3xI6SUJdAlATTIWIlOHFgkFNOUKVOCEAAAhCAgLMEAlES6hO2Tpk392mwz+9ncl/ajhFyKm0oqQgCEIAABCCQMQKBGJ6JW6c6GirkkD415+mfmMtYb9d9Q8ipdX+I2UEIQAACEFhvBOY9vosTVtCphGJ4GgoKlLClwbJp4Y2extMCOZVGmFQFAQhAAAIQyASB82OzGqlzFRc0VpYk0d6iNzqxEpKAF7kIcioyF9ZCAAIQgAAEspZAcFpffn4CQaeCuxN0nwquIZEiAeRUigApDgEIQAACEMg0gaQdp0xHzeS+kwO8uS9tBw45lTaUVAQBCEAAAhDIDIHeUStKQhKOU6Z725usSJ5dyKn0HS3kVPpYUhMEIAABCEAgIwR6Rqw37iUREt30rrO5QoOEw9PzQ1NM7kvPAUNOpYcjtUAAAhCAAAQyRiBgnUo86JTpoV6DvNV+c9/RvvGM9Xl9N4ScWt/Hl72DAAQgAIF1SKBnNCXrlIjsb6vREjmVrpMDOZUuktQDAQhAAAIQyAQB94J3cNIapEvad0plL9toyakjWKfSdMSQU2kCSTUQgAAEIACBjBAwURIqSgpry4uTbnC/LaeO9k0kXQMFQwkgp0JpkIYABCAAAQhkNQG9aO9vn+hSF7c1VSYXdMrs3r6N1Ur0jc2OTs9n9Q6vkc4hp9bIgaKbEIAABCAAgby8ew6f/d7zvQX5ef/pXbtS4VHtKjbe6Iz3pYIxWBY5FURBAgIQgAAEIJDVBJ44Mfhff3xcXfzMzXvesrMpxb7ua7MMVMipFDGa4siptGCkEghAAAIQgICzBM4MTX/i/hd9/rz3X9X+O2/emnpjxhudyX2pk1QNyKm0YKQSCEAAAhCAgIMEJtwLH/7OcxNuz5Wba7/4G/tT8ZoK9jIgp84TeiqIJPkEcip5dpSEAAQgAAEIZICA1+f/5D+81DU43Vrj+uvbryotKkxLo/vsyX0KsD42gzd6qkSRU6kSpDwEIAABCEDAUQL/4+HXf/7GoKu44O4PXd1c5UpXWzVlxVsaylUb4RJSR4qcSp0hNUAAAhCAAAScIvDAi71/88Rp1f7l9x8wwaLS2JKJjY43eupIkVOpM6QGCEBgCYEL47Of/9Gx04NTS9byBQIQSJzAyz1jn37giMp94sbt7z3QlngFK5RYDOaJ+9QKoFbcjJxaEREZIACBxAjc9/S5v//l2bt/cSaxYuSGAATCCPzVT0/Me3w37Wn5o3fsDNuYhhV4o6cBol0FcipdJKkHAhAIEDg9ZNmlzo1MQwQCEEiFwJzH+8yZYdXwqXfvKlDgTgc+++3Y6N3DM+OzCw5Un0NVIqdy6GCzqxDIDIGzQzNqyLxWLDMt0goE1iWBF7vH3Au+pqrSHc2VDu1gbXnJpvoyVX6MdyGnhhg5lRo/SkMAAksJ6IVi3cOWXer82Kxmdy/dyDcIQCABAodPDSn3oc6GtESZitYw3ujRyCS0HjmVEC4yQwACKxAYmpqfnvcq04LXPzDpXiE3myEAgegEnjRyantj9Cxp2GK80ZnclyJK5FSKACkOAQgsIRDqMsV43xI0fIFAIgQUBv3V3jGVOOSwnDLe6MfOTyTSO/IuJ4CcWk6E7xCAQCoEjOOUqaF31HKi4gMBCCRB4OmuYY2Wb2usaKu1fJuc+xg5pRcCSsA518q6rxk5te4PMTsIgYwSMI5TpsnekdmMtk1jEFhHBAKOUw6bpgSsrqJko63YjvVhoEr+BEJOJc+OkhCAQDiBs8OWRarKVaQlg33hfFgDgTgJHO6yQiQ4PdJnOmPCJRxlcl+cxyZSNuRUJCqsgwAEkiVgrFPXbWtQBb1jDPYly5FyuU3g4rj71MCUQk2Zn5LTMMx4H97oqXBGTqVCj7IQgMByAsY69eYd1lwkrFPL6fAdAvERMCN9Ujk15cXxlUgpV+BVM+d51UzyGJFTybOjJAQgsIzA2My8ia18fadlnSL01DI+fIVAnAQy5jhl+hP0Rp+a88TZQ7ItI4CcWgaErxCAQPIEjGmqpbq0o6GiqCCf0FPJo6RkDhNQLNzDXXYAT+f90A3mhsrSthqX309s9ORPO+RU8uwoCQEILCNgHKe2SEsVFrTWurSV8b5liPgKgRUJdA1O9U/MlRYVXLWlbsXM6cqwb2ONqsJ9KmmeyKmk0VEQAhBYTkAvUtWqjoZyLdtrrSWhp5Yz4jsEViLw5EnLNPWmjnpXceFKedO23Yz3MbkvaaDIqaTRURACEFhO4Kz9tj5Zp7Shvc6KPUjoqeWM+A6BlQiYEAnXb7ccEDP2CcgpYqMnSxw5lSw5ykEAAmEEjHVqi7FO1RnrFJE8wzCxAgLRCXi8PsVD1/Y3Z8pxyvTFTO7TOOM03ujRj06MLcipGHDYBAEIJEbA+E7JD13FAtYpQk8lhpDcuU7g1b7xyTlPtatoX5vlzJSxT1NV6YZqyxv9+AVioydDHTmVDDXKQAAC4QQm3QtDU/NavzlgnbIH+0axToWjYg0EohL45SnLcer6zsZCBfHM7MfERj/SS/SpZLgjp5KhRhkIQCCcgBnpa6goqXZZgQfb663BPkJPhYNiDQRiEHjSllOH7EC4MbI5sSkQzJNXzSQFFzmVFDYKQQACYQTOjVjT+ozjlBItVZroTeipMEysgEB0AjPznhe7x7T9kB0IN3pGR7YseqNjnUoGL3IqGWqUgQAEwgmYaX3GcUpbCT0Vjog1EIhN4Lmzo/NenyJqbm20HBAz/DFySu8KlKoLNu3z+RXuRFHaByfngitJhBOw3vrOBwIQgEDqBLqHLOuUcZwytSn0VM/IrK7FiqCTev3UAIF1T8A4Th3a3pifn2nHKbFtrnY1V5UOTM7dc/isVNSpwSlJq9OD07MLXm3d21r90O//6ro/BEnvIHIqaXQUhAAElhBYZp3SNkJPLQHEFwisRCDgOJXZEAmhnZL71GOvD3z5kTdCVxYXWqP2mvGnGAoVpciGUDaX0nC5xIIUBCCQCoHQoFOmnnZCT6UClLI5RmBkev6YHUUzwwE8QzF/8ODmNy5ONlaVdjZVbG+u3N5UqeXm+vJrv/TY0NScolJd3l4bmp90kAByKoiCBAQgkDyB2XnvxQm3ygd9p5Qm9FTyQCmZrQTmPN6ekZnykqIqV1FlaVEaR+WesqN37mqpaq6y3ne5Kp937G3RX3jTO5orJadO9COnwtkE1iCnoqJhAwQgED8BM61PsQdry60oCeYTkFOEnloEwv9rmsDApPu+p8/d90y3ia+mfVFkKCmq6rLiKlexTv622jLNbNUThTwItawrLw6KLYmwvtHZHv2NzPSMzsitu62mbFtTRWdTpZYqrtrMSN8qmqZiHJ0dLZVPnR4+OTAZI0+Ob0JO5fgJwO5DID0EAo5TjRXB+4fqDQ09lfmYhOnZMWqBQF6eXgz87cNnHnzlvFyIxKOsuNDj8ynt8+dNuD36y8uLEK5W5iupK1dRYe/obP+kWwHHo33kAC5d9fpFKxx5ht8tE61Ly9bLOqU1p/qnlq3na5AAciqIggQEIJA8gXPDJujUktndoaGnWmusIOl8ILCGCHh9/p8e75eQevbMiOn2VVvq7jjU8a59GxRTbc7jm5hdkJbS+wC0HJ9d0CRWzW/tHpmWH+GFcfek23O079ILWyTCNtWXbaor31Rfrje69I3Nnh6c6hqclqVKk+n0pyZKCgsObs3GabDbm6vUvZMDyKmo5y9yKioaNkAAAvETMNapLXYk9GApE3rKjpUwi5wKYiGRGQISQxqMCzWXxt/ugtf3wIu933i8y4xiSzy95/LWOw5tvWLTJUdsV3Gh/pqrI9fqXrBcrM4MTSuOlOZkbKorq68oidiZCfeCghF0DUwps+o3A3+RK129tRrsU+MappSXZFlJ4ep1JHtbRk5l77GhZxBYQwTCp/WZzhN6ag0dxPXU1Re6R2+9+2nd+He2VMm5e+eGqt0bqnY2V9WE+PZF3F8jpL722CmN0CmD/J9uvWbz7dd2bKhJzD1cSmtHS5X+IrYSulIvZZKKChVqoVuzJN1YWSo5qLmHmtxn3kWTJR3Lnm4gp7LnWNATCKxhAkHfqWX7QOipZUD4mhkCDx+9oME4/WmcLjhUp6Y3VLv2tFZptv+BTTVaSiUE+7NMSGnTx9667bZrtmCMMYgUMUEkFdgTORU8Z0ITyKlQGqQhAIFkCGjWkl51rJLBF/YFayH0VBAFiUwSMAGcPvm27R2NFW/0T564OKlwSufH3Qrnob/H3xg0ndlYW2Z0lRyb7v7FaWORQkhFPFLyRpecYnJfRDhaiZyKRob1EIBAvAR0E9IUp/KSwqaQZ31TmNBT8UIkX/oI+P1+zcVTfe/ctyHUlCIvJekqKa1XesZe6R07PTQtf3D9PXTkomkcIRXjIJjJfSeZ3BeFEXIqChhWQwACcRPoHp5W3i0NS6IkmNKEnoqbIhnTRkD6XlPt9GoUOU6FViovpas76vVnVmpG3pG+8Vd6xl/tHdNEvFsub2VoLxTXsrTxA9Ng37L1fDUEkFOcCRCAQKoEztovP+5oKA+viNBT4UxY4zQBM9K3o7mqpKggRluaQ3d9Z6P+YuRhU5CAsU7JS1KD+6VFTO4LggkkYp1qy/PyHQIQgEAkAmYyuSJBh28MDT0VvpU1EHCCwPHz1kjf/o1RYhg40WQO1KlYWYr8rmF9BXTIgd1NeBeRUwkjowAEILCMQGBaX8OSGJ4mjwk9pbRx8l1WkK8QcILAUftFwvvaapyoPGfrVNAsM96H+1TEcwA5FRELKyEAgQQIRAs6ZapQ6CklFDA6gRrJCoEUCByzrVP72rBOpQAxUtGANzruU5HgIKciUWEdBCAQNwGP16foz8qud75GLEToqYhYWOkQAb2zpX9iLj8/b08rcirNjBV6SjWe4kXIkbgipyJRYR0EIBA3gfNjbo/PL59fBUiMWIjQUxGxsNIhAsY0tbWxoqKUuVZpZsxgXwygyKkYcNgEAQisTCD4tr4CvSAt0ofQU5GosM4pAmZaH45TTvA1g31yRVcEeSfqX9N1IqfW9OGj8xBYfQLBoFPRukLoqWhkWO8EgeMBP3RG+tJPt7XGVVFSKGu0+dWnv4G1XCNyai0fPfoOgSwgYPzQIwadMr0LDT2VBf2lC+ucAH7ozh1gTe7bbkdGZXJfOGTkVDgT1kAAAgkQODts+aGHv60vWAWhp4IoSDhNQK+RMSckg30OoWZyXzSwyKloZFgPAQjERWDFwT5CT8XFkUzpIPCaPdLXVuOqryhJR33UsZyAkVMn+ieXb8j578ipnD8FAACBFAj45EURM0qCqZvQUykwpmgCBIwf+l4CeCbALLGsO1pMrATe3LecG3JqORG+QwAC8RO4OOGe9/iKCvLbaiNHSTBVEXoqfqTkTIXA4rQ+/NBToRirrN6EqM2nB6cVcC5WvtzbhpzKvWPOHkMgfQRMlIRN9eUa0YtRK6GnYsBhUxoJGD/0/Rt5vUwaoS6pamNtmau4YN7rM2/qXLItt7/EugLmNhn2HgIQWJlA7NfLBMsTeiqIgoRzBNwL3pP2+094vYxzkBVezsRGN6ida2jN1YycWnOHjA5DIIsIxHj5cWgvCT0VSoO0QwTkH+31+evKixUeyaEmqFYEzHjfKd7ct/RsQE4t5cE3CEAgEQLn7CgJm+utlxzH+BB6KgYcNqWLwNG+CVWlEAkKj5SuOqknnEDAOsXkvqVokFNLefANAhBIhIBeN6HsHY0ryCm9zk/u6gte/8CkO5HqyQuBBAgEAnhuxA89AWhJZCX0VERoyKmIWFgJAQisTOAXJwdfv2iFn9lpB0qOUaDQmvpXpgy9o7MxsrEJAqkQWJzWhx96KhRXLmt+7xrs09DqyrlzJgdyKmcONTsKgbQSUPjpT/3fV1Xlh67bYibuxa5+0X3KCqHOBwJpJ6B5+69fNIN9WKfSTndJhZrJW1JUMOfx9fF0FAIGORUCgyQEIBA3gS88ePzCuFvvlvn0r+2OpxChp+KhRJ6kCZwemnYv+MpLCrc2VCRdCQXjISBjc2eTFczz5ACx0S8BQ05dYkEKAhCIk8DPXuv/Py/0yt/3L3/zgB5U4ylF6Kl4KJEnaQLGcWpva7Vm8iddCQXjJID7VDgo5FQ4E9ZAAAKxCIxOz3/6gSPK8eE3b31TR32srCHbCD0VAoNk+gkcC0zrY6Qv/WzDawzIqX5eNXOJDXLqEgtSEIBAPAQ+96Njg5NznU0Vf/zOXfHkN3mwTsXPipxJEMAPPQloSRdZfHMfg32XEMZlpb+UnRQEIJDbBP75yIUfvXJewyl3feAKV3Fh/DA21Vsz+/Riiu893/OBqzfFXzDHc47PLNz3bPfQ5Lze4qNhrML8fHmuFNjLhsqSm/e31lWU5Dgi7b7f7w8M9rVhncrE6bDdfnOfAqOLPFG+DHHkVCbOPNqAwPogMDQ1d+cPj2pfPn5D5xWbahPaqdaast+8ql0eV5oPeHZo+j++cxc+LrEBaqraPz7Xc9dP3hidWYiW888fPH7z/g23XrPlTR11uXxXUwCOCbenuDB/xZgd0UiyPiECmoMi2jPz3vPjbr3FL6Gy6zUzcmq9Hln2CwJpJqDH0Dt/cGRken73hqpPvn1HErX/xfsu31Dj+tpjp7758y697O+uDxxIyL6VRItrt8gvu4b+y4PHTVgv+am8fU+L+CvMj9fv99lLpV/pGT9+YeKHL5/XnwJVf/Dg5vddubG2PBeNVcY0JS2lCfxr96CvoZ4XFxZsbaw40T91sn8SOWUOHHJqDZ3AdBUCq0ng/718/pFj/QpuLhlUWpTAMF+w0zJHyd1qS0PFnzzw6o+PXOgbm737Q1c3VZUGM5AQAb2357899NrDxy4qXVNW/Efv2HnbNZuLNNQX9pHAerV3/P5nzmn4VTEVv/BPx//i4dffc1nrHYc6Lm9PzHYYVvcaW7HoOMVIX+YOnN7cJzmlE++GXc2ZazWLW0JOZfHBoWtrn8CC1/fw0Ytdg1OKiDPn8VrLBa/b451b8M17fXKCkTqxlwWSGiatt7fK0qDnbD38hRtvBibcr/SOv9Iz9krv2GsXJlWkylVk/xWbpd7mUlpUoGDFPpkx/JZPicwYViLPbxxu7GWeXHCMI446M+n2TMwuaKxk0r0wMetRfM7ZBW9RQYGM+XoGLdJS6aL804PW+2Rkl9I70VI5Mu+/ql2Psx/77gsv94z9xjcPf/u33sQAjQxOIzPzF8fdDx258K0nz8x7rHPj312z+Q9u2hnDNUqjewc21ervs7fskYFKuuq1CxM/eKlPf7+6o/H3btx+zdb6HBkBPNo3rnMyxTMzlbM6B8suvrmPyX2Bg5+vq20OngfsMgScJjA775XP9d8+cVo2mOTakrt3R0OFkVZlJYVHpKJ6xxQ5M7na0lLq8vaa73/8emms1Gs7PTj123//3NnhmarSoq/fduWhzgYJiGX3fl2dJEDHZufHZxfGZha0lF/2tLSGLRONXtRS1zBJRnkazXutpSSsElqaP6NctZzzWlpWKtbj9SvYY7XLCFCJ0YASlXw00tOq2dagGlmzP5YYVSu6VtpLK2WnL60UEK1Ti1Nuz9Tc4p+V9s7Oe8pLi2Rn0p/ErkloqaDSOpqSUBcmZvvH59SxINU3b2/801v27tpQFVwTT0K9kdT+zi/PylilHVGRq7bU/d6NnTfual4GNp7a1laeg198dGBy7vsfv+6qLfFG7lhbO5iFvf2nV89/4v6Xrtxc+8DvHsrC7mW+S1ktp3RtmpmzHuV1ZwosF3xu+4KoC4cuF/a1z7qi6fKn0YcbdzfFGVEw86DjaVF7ohuFdqqk0LJVxFOEPFlIQLf8e58+e8/hs8PT8+peY2XJTXtapIdkanIVaVmghAxIEiU6b3W4dc/WUvd4LXVP7R2dkQn9RP+kjEbhe6fImTubqw5sqtFozv6NNTIyWSYl+xauhIpoqfu0lImxQtkSRWmrJv1kAi1aWsFqzvxwdI+vtu70lqowibKSAp2KCx7/gs8SH0aXKLPuVdIB4b1Kbo3csD527wvPnh0JFpeism111lJ/+vmHioxgtnWZ0JFtqiyVh+9/eEvnTXtSEkA9IzPS8f/7+R4pT7GSr5ssVTdf1iqk6xKd3qt98Is/E8Cjn39XRSlDLhk6yG9cnHzXV5/QRePVz70zXXpd9/rh6bnhqXldHPTgpIuPLkTWM5K91FddhTTwbQznuoQGE7ouHdy6yko6K+RU9/C0nuCtpzTrL5DQV3M3iv/U0AjCF35939t2t8RfxOmcUkiamyMjvG5IoW2Zk09nie58GgOylvZgkP1IaWXUII58KnXT1dL6s269ebo4ei7d3nSe+fLz8s3t2bpbL96qdUFRyEQZNjRa1NFYoXSoOWF6znNmaDr41z/hlh7VlUgfLa1/eXm67N64q+m2a7eEFrRy8LEJyLKigTZZOIS6orSw0loWaakhs7978sx9z5yTfUIZRf6jb+3UdLbwMbsVQerM0dP2SVtX6U0OMnLsb6vWsI4klBpasfhayaCT/09/eFTT/XQSRvvot2BZdMqLa20Dj1Dr/DSWLFs15hnJGLywlgTGKK1LbfBHpEL6EZUWWz8lDV+KZ1B92hrUGuKURcqq0A5GUKCoBLYklQIxv1bz67CX9i8lsNb6yQR+Pnl5+r3o7mJOhkoNwtonhn5+ujHItKbTwzKwLf6VFBa21brkm6/h3Q01Zc1Vpen9uUlk6Gz87lPd0/NesdXpWldeIpK15ZadTEtJ5+Yq169f0dZQubbd1x5/Y+COe57b1lTx2B/fEO0sYn3aCejHu/fPHtFT2Tdvu1K3Df2CjKuAznP9pjQlQhdA+6+8vb5MT2vBDujyKMWvmCla6k+zMoem54en5iShNFUwmC2hhJ4ZHv6DtyRUJO2Zs0JOvfXLj2uaT7R90+VM1yPJBV0QtVRaV0ldT/XRJv1v0ppfYMZBbr5sw+feu6+l2hWtwoytl9C+84dHHnixL2MtRmxIfHROS13JsCcVpZt0xGzhKxWn8bO37NVIQfimnF0juf+Vn5z4/ou9QeEbEcWuliqFErjl8taIHsQRi+Tyypl5j/2oYFvpZK6Toc4ynvkkQ3VRrpA+MoIllxklu++ylX7nqbPfPnxGo6UR65D+k7f77dduWbvn6jceP/XlR95474G2r33wVyLuIysdIvC2u35uXCpXrF8mcAXy1b27Z3RWsilGfj0CNVSU1FeU6LlRTz7GiVNLy4nTutlbo1IyT8x7LIOCZTi3jei6wf3Vv70iRrUZ2JQVcuqOe57tHpmxHtGqy+wHNfO4pq8uuTXoAMRzMdUV+auPntTTmFjrofBT796lWCyCnwGIEZuQye2j976gec7qwx/etONXNtcpm3kEt/0urLRODvO4LAuTxKJsUVrmF+QteCw/Zd1g9CfDlUmrHuXXk7q1tL2DtdQjvUSSdJseFGbnrZFQORHryUDCX6F9NNqkPz11L+uhTlZZrWS70p9Menoct0ZM7Y/5XzGv//pfuox18IZdTZ99z17jdbisnpz6KqPC//p51z2Hz+iIaMcPtNfolj8959WTlgx+wYcqeav87g2db9ud0mBNToFlZzNAQNeHC2PuMdswNjYzL/uB1JW+PtU1rFAL6oAeAD7/r/Zd19mQgc6ksQld+l6/OPGlh17XkPGf/NpuGYPTWDlVrUjg3qe7/+Zfuownou0nYLkGKiEDrTST/BZkedJfuH6SstpcL6tVubWsk2nWJf0kvwijouK546/Yt8xnuHQfzXzbTrSo6COf+cFRzXtS5Qoz+KV/c9me1lWYOvvo8f4//N7LkjU6P75+65XXblu1i5TGL/on3WeHZiTvpPq3NVXqdesaN1kRviy3X3/slNTDgtcvDfeh6zp+/+074im4Ys1rLoNuRfc+1f31x0+Z5/uDHfWfvnn3lbY+Du6LRLwEvYb2NYayRq8FwX0hkTsEdN7+43Pn/vKRQKTQ91zeeufNe9qWRmXU+X/i4pQurbov6tFLVwM92unPJLS0R1Qtp0CNVuqZ0PgIaqU26ZFPdgX7UdAqItuCxj11YZTDvpbWeOuclVATulLJIUKPKPqoV0roKOjBWCaK4FwBGdL0tWd05vj5CUVGkBDUsHvQTnz/R665vrMxd47dGtpTPXCeH5vVgZNJSfpJL0jQMV1D/Y+zq+tNTmm39VP87tPdsv3KbKAf8NVb6vS71Ep5tOkXa/t66/+Ac5IsPbJ+2Uvrxy/Loaw7euKxliYx75UTnPG30HVBww4yiesaIUclCbWDW+sObm3oaCgP3kHV0FcfPaFAheqJDBXfuPVK+UbEeTCyMJsGB7/44+OPvjagvul54vbrOmSz1c6aYVYtlZb1VQYwTV+ShcZAMwld+/ZsqNbspN2tVfKxtfKFfSTaNHbeNzqrOQR6RtF1XFfhsFzWrCqNUSrAiSIOSBpa3oi6oFtXautibV+1o/ruq1l7ZNhq3uq2/UWPULY11KVB4Ygtyi44ODWnqASyL0pWmtl5iqb4n9+9++2puQmH7x1rILC6BGSvuusnJ+57plsXRnlTaDKgLmvST5Is+pMfhS6bq9vDGK3rkXVvW8112xo++pZtUa8CMcqzCQJpIrAO5ZQhI0/2P3/w2D8ftULhOf1prCy1dFVH/WXttdJSvzg5pBZ/6/qOz9y8J+Kt2un+pL3+J04MKkKgXs+UdM0y4Wo0QbpKw+dyfrc8EEflhDirEbTQOiV5NMK7qc4y/8oOrOfdroHpU4NTpwem9BQbmjONaR0+M8Qs/Tc0NS8JJem2zDrdUl0q/5L3Xdm+dv1L0kiMqtYlAZl8Pv+jY6ETLYO7KZvrvrbqbY2VWhP6XOr158mupGcPE0otuNTzlVbaD7HWzNBQNabfuGVwWrQ5WQ77rmJXkWXBkhiSZ4cxYunJRwpOVg3ZriwfZ2PKss1aekDd21q9t83629da3ZwFbrJBUCRymcC6lVPmoL7QPSIDtbE2W/aMRRu1ZuPYP3L95gOTwPVVLkqyQhlvdw0Gu0oKtdSzmu6g1kRNe7q4yaav+pG/1DP63JlRhSJcNpdbRf77+y7711dsXE8nlnb5e8/3Pt89Ihu8jEN6WNVSH5/PSsi8bxGzlyYhjJrsKrcGWXfkxRXj4VZKS/5bMmtpoD3czSvIUJdXRdPubKrU/B0NKOhwaHjAXloOiTouGh0w0xKDRUxCnmqhfdZFWld5WZ0vTlgzSXXRX5Y/+FVmS43oN1eXvmNvyx3Xb9UeBTeRgMC6JKCfimJW/c9HT+r3qJCYklDW38aathpXROtynBBUbWB8QNcKXU/1Y+YDgXVHYJ3LqQwcL3l/6z0Pz50deebMyEvdo5sbyr/ygSsSjb+XgX6uYhMaPNVUf+mq1y9MXpyY1fia7E+b7BF0JSSOTN90zZVxSFYr23vRsl1pAFHOXvKCl4rqaFQoxDQLGrWol8sGY3PoIViWKnVPU9a11LR8rvureNrQNAQgAIE1RAA5lc6DpdtzKs9w6ewKdUEAAhCAAAQgkCkCyKlMkaYdCEAAAhCAAATWKYEIs6jW6Z6yWxCAAAQgAAEIQMARAsgpR7BSKQQgAAEIQAACuUMAOZU7x5o9hQAEIAABCEDAEQLIKUewUikEIAABCEAAArlDADmVO8eaPYUABCAAAQhAwBECyClHsFIpBCAAAQhAAAK5QwA5lTvHmj2FAAQgAAEIQMARAsgpR7BSKQQgAAEIQAACuUMAOZU7x5o9hQAEIAABCEDAEQLIKUewUikEIAABCEAAArlDADmVO8eaPYUABCAAAQhAwBECyClHsFIpBCAAAQhAAAK5QwA5lTvHmj2FAAQgAAEIQMARAsgpR7BSKQQgAAEIQAACuUPg/wMYOn855a9inQAAAABJRU5ErkJggg==;" parent="1" vertex="1">
          <mxGeometry x="17" y="170" width="794" height="174" as="geometry" />
        </mxCell>
        <mxCell id="yW331z_t8bSA6Lrj6Iq1-5" value="" style="rounded=1;whiteSpace=wrap;html=1;fillColor=none;strokeColor=#0066CC;" parent="1" vertex="1">
          <mxGeometry x="80" y="154" width="30" height="190" as="geometry" />
        </mxCell>
        <mxCell id="yW331z_t8bSA6Lrj6Iq1-8" value="" style="rounded=1;whiteSpace=wrap;html=1;fillColor=none;strokeColor=#FF3333;" parent="1" vertex="1">
          <mxGeometry x="230" y="154" width="30" height="190" as="geometry" />
        </mxCell>
        <mxCell id="yW331z_t8bSA6Lrj6Iq1-10" value="" style="rounded=1;whiteSpace=wrap;html=1;fillColor=none;strokeColor=#82b366;" parent="1" vertex="1">
          <mxGeometry x="610" y="162" width="30" height="190" as="geometry" />
        </mxCell>
        <mxCell id="yW331z_t8bSA6Lrj6Iq1-11" value="" style="rounded=1;whiteSpace=wrap;html=1;fillColor=none;strokeColor=#82b366;" parent="1" vertex="1">
          <mxGeometry x="650" y="164" width="30" height="190" as="geometry" />
        </mxCell>
        <mxCell id="yW331z_t8bSA6Lrj6Iq1-12" value="" style="rounded=1;whiteSpace=wrap;html=1;fillColor=none;strokeColor=#82b366;" parent="1" vertex="1">
          <mxGeometry x="690" y="162" width="30" height="190" as="geometry" />
        </mxCell>
        <mxCell id="yW331z_t8bSA6Lrj6Iq1-14" value="" style="rounded=1;whiteSpace=wrap;html=1;fillColor=none;strokeColor=#0066CC;" parent="1" vertex="1">
          <mxGeometry x="130" y="154" width="30" height="190" as="geometry" />
        </mxCell>
        <mxCell id="yW331z_t8bSA6Lrj6Iq1-15" value="" style="rounded=1;whiteSpace=wrap;html=1;fillColor=none;strokeColor=#FF3333;" parent="1" vertex="1">
          <mxGeometry x="180" y="154" width="30" height="190" as="geometry" />
        </mxCell>
        <mxCell id="yW331z_t8bSA6Lrj6Iq1-16" value="" style="rounded=1;whiteSpace=wrap;html=1;fillColor=none;strokeColor=#0066CC;" parent="1" vertex="1">
          <mxGeometry x="570" y="162" width="30" height="190" as="geometry" />
        </mxCell>
        <mxCell id="bjSAYy8EuKd5hA-n395q-3" value="" style="shape=image;verticalLabelPosition=bottom;labelBackgroundColor=default;verticalAlign=top;aspect=fixed;imageAspect=0;image=data:image/png,iVBORw0KGgoAAAANSUhEUgAAA0YAAACGCAYAAAD5JJoxAAAKqGlDQ1BJQ0MgUHJvZmlsZQAASImVlwdQk9kWgO//p4eEFoiAlNCbIJ0AUkIPvTcbIQkQSgyBIMUuiyuwooiIgCKoVAVXpchaEcW2KDawLsgioqyLBVCxvB8Ywu6+ee/NOzNn7jcn555yc+/M+QEgS7MEgiRYGoBkfpowyMOZFhEZRcONAAjAgAJUgCGLnSpgBAT4AETm17/L5APEG5G7RjOx/v33/yoyHG4qGwAoAOEYTio7GeFTiI6xBcI0AFAHEbvm2jTBDHchLCdECkS4f4bj5nhshmNmGQ1mfUKCXBCWAwBPYrGEcQCQaIidls6OQ+KQnBA24XN4fIQFCDskJ6/hIHwcYT3EB7GRZuLTY/4SJ+5vMWPEMVmsODHP9TIreFdeqiCJlfl/Hsf/luQk0XwOHURJ8ULPoJmekTPrT1zjLWZ+jJ//PPM4s/6zHC/yDJ1ndqpL1DxzWK7e4r1Jfj7zHMtzZ4rjpDFD5pmb6hY8z8I1QeJcsUIXxjyzhAt5RYmhYns8lymOnxUfEj7P6bwwv3lOTQz2XvBxEduFoiBx/Vy+h/NCXndx78mpf+mXxxTvTYsP8RT3zlqon8tnLMRMjRDXxuG6ui34hIr9BWnO4lyCpACxPzfJQ2xPTQ8W701DLuTC3gDxGSawvALmGQQAT+ADaMAMWAMr4AboICyNm5E204jLGkGmkBcXn0ZjIC+MS2Py2cZLaGYmZuYAzLzXuevwnjr7DiHq9QWbAPlfbNIBgFkLtlWuALRpAiCVsmDTQ+62VCwAF5ezRcL0OdvsW8IAIpBCKlQEqkAT6AEjpD4rYAeckAq9gD8IAZFgFWCDeJAMhGAtWAc2g1yQD3aCPaAMVIJDoA4cAydAGzgDLoIr4Aa4De6Dx2AADIPXYBxMgmkIgnAQGaJAipAapA0ZQmYQHXKA3CAfKAiKhKKhOIgPiaB10FYoHyqCyqAqqB76GToNXYSuQb3QQ2gQGoXeQZ9hFEyC5WAVWAdeCtNhBuwNh8Ar4Tg4Bc6Cc+AdcClcDR+FW+GL8A34PjwAv4YnUAAlgaKi1FFGKDrKBeWPikLFooSoDag8VAmqGtWE6kB1o+6iBlBjqE9oLJqCpqGN0HZoT3Qomo1OQW9AF6DL0HXoVnQX+i56ED2O/oYhY5QxhhhbDBMTgYnDrMXkYkowNZgWzGXMfcwwZhKLxVKxulhrrCc2EpuAzcYWYPdjm7EXsL3YIewEDodTxBni7HH+OBYuDZeL24c7ijuPu4Mbxn3ES+DV8GZ4d3wUno/fgi/BN+DP4e/gR/DTBGmCNsGW4E/gEDIJhYTDhA7CLcIwYZooQ9Ql2hNDiAnEzcRSYhPxMvEJ8b2EhISGhI1EoARPYpNEqcRxiasSgxKfSLIkA5ILaQVJRNpBqiVdID0kvSeTyTpkJ3IUOY28g1xPvkR+Rv4oSZE0lmRKciQ3SpZLtkrekXwjRZDSlmJIrZLKkiqROil1S2pMmiCtI+0izZLeIF0ufVq6T3pChiJjKuMvkyxTINMgc03mpSxOVkfWTZYjmyN7SPaS7BAFRdGkuFDYlK2Uw5TLlGE5rJyuHFMuQS5f7phcj9y4vKy8hXyYfIZ8ufxZ+QEqiqpDZVKTqIXUE9QH1M+LVBYxFnEXbV/UtOjOoimFxQpOClyFPIVmhfsKnxVpim6KiYq7FNsUnyqhlQyUApXWKh1Quqw0tlhusd1i9uK8xScWP1KGlQ2Ug5SzlQ8p31SeUFFV8VARqOxTuaQypkpVdVJNUC1WPac6qkZRc1DjqRWrnVd7RZOnMWhJtFJaF21cXVndU12kXqXeoz6toasRqrFFo1njqSZRk64Zq1ms2ak5rqWm5au1TqtR65E2QZuuHa+9V7tbe0pHVydcZ5tOm85LXQVdpm6WbqPuEz2ynqNeil613j19rD5dP1F/v/5tA9jA0iDeoNzgliFsaGXIM9xv2LsEs8RmCX9J9ZI+I5IRwyjdqNFo0Jhq7GO8xbjN+M1SraVRS3ct7V76zcTSJMnksMljU1lTL9Mtph2m78wMzNhm5Wb3zMnm7uYbzdvN31oYWnAtDlj0W1IsfS23WXZafrWythJaNVmNWmtZR1tXWPfR5egB9AL6VRuMjbPNRpszNp9srWzTbE/Y/mlnZJdo12D3cpnuMu6yw8uG7DXsWfZV9gMONIdoh4MOA47qjizHasfnTppOHKcapxGGPiOBcZTxxtnEWejc4jzlYuuy3uWCK8rVwzXPtcdN1i3UrcztmbuGe5x7o/u4h6VHtscFT4ynt+cuzz6mCpPNrGeOe1l7rffq8iZ5B3uXeT/3MfAR+nT4wr5evrt9n/hp+/H92vyBP9N/t//TAN2AlIBfArGBAYHlgS+CTIPWBXUHU4JXBzcET4Y4hxSGPA7VCxWFdoZJha0Iqw+bCncNLwofiFgasT7iRqRSJC+yPQoXFRZVEzWx3G35nuXDKyxX5K54sFJ3ZcbKa6uUViWtOrtaajVr9cloTHR4dEP0F5Y/q5o1EcOMqYgZZ7uw97Jfc5w4xZxRrj23iDsSax9bFPsyzj5ud9xovGN8SfwYz4VXxnub4JlQmTCV6J9Ym/g9KTypORmfHJ18mi/LT+R3rVFdk7GmV2AoyBUMpNim7EkZF3oLa1Kh1JWp7WlyyGB0U6Qn+kE0mO6QXp7+cW3Y2pMZMhn8jJuZBpnbM0ey3LOOZKOz2dmd69TXbV43uJ6xvmoDtCFmQ+dGzY05G4c3eWyq20zcnLj51y0mW4q2fNgavrUjRyVnU87QDx4/NOZK5gpz+7bZbav8Ef0j78ee7ebb923/lsfJu55vkl+S/6WAXXD9J9OfSn/6viN2R0+hVeGBndid/J0PdjnuqiuSKcoqGtrtu7u1mFacV/xhz+o910osSir3EveK9g6U+pS279Pat3Pfl7L4svvlzuXNFcoV2yum9nP23zngdKCpUqUyv/LzQd7B/iqPqtZqneqSQ9hD6YdeHA473H2EfqS+Rqkmv+ZrLb92oC6orqveur6+QbmhsBFuFDWOHl1x9PYx12PtTUZNVc3U5vzj4Ljo+Kufo39+cML7ROdJ+smmU9qnKlooLXmtUGtm63hbfNtAe2R772mv050ddh0tvxj/UntG/Uz5WfmzheeI53LOfT+fdX7iguDC2MW4i0OdqzsfX4q4dK8rsKvnsvflq1fcr1zqZnSfv2p/9cw122unr9Ovt92wutF60/Jmy6+Wv7b0WPW03rK+1X7b5nZH77Lec3cc71y863r3yj3mvRv3/e73Pgh90N+3om+gn9P/8mHSw7eP0h9NP970BPMk76n005Jnys+qf9P/rXnAauDsoOvgzefBzx8PsYde/576+5fhnBfkFyUjaiP1L81enhl1H739avmr4deC19NjuX/I/FHxRu/NqT+d/rw5HjE+/Fb49vu7gveK72s/WHzonAiYeDaZPDk9lfdR8WPdJ/qn7s/hn0em137BfSn9qv+145v3tyffk79/F7CErNlRAIUoHIvMB+9qASBHAkC5DQBx+dw8PSvQ3DfALIH/xHMz96xYAXDECYDQTQD4Imv1BQB0EZZEdGYkCnECsLm5WOdn39k5fUYYJGRWKQQA97B/Mhv8U+Zm+L/U/c8VzES1AP9c/wW9ggOxP2g69gAAAIplWElmTU0AKgAAAAgABAEaAAUAAAABAAAAPgEbAAUAAAABAAAARgEoAAMAAAABAAIAAIdpAAQAAAABAAAATgAAAAAAAACQAAAAAQAAAJAAAAABAAOShgAHAAAAEgAAAHigAgAEAAAAAQAAA0agAwAEAAAAAQAAAIYAAAAAQVNDSUkAAABTY3JlZW5zaG90d5+OSAAAAAlwSFlzAAAWJQAAFiUBSVIk8AAAAdZpVFh0WE1MOmNvbS5hZG9iZS54bXAAAAAAADx4OnhtcG1ldGEgeG1sbnM6eD0iYWRvYmU6bnM6bWV0YS8iIHg6eG1wdGs9IlhNUCBDb3JlIDYuMC4wIj4KICAgPHJkZjpSREYgeG1sbnM6cmRmPSJodHRwOi8vd3d3LnczLm9yZy8xOTk5LzAyLzIyLXJkZi1zeW50YXgtbnMjIj4KICAgICAgPHJkZjpEZXNjcmlwdGlvbiByZGY6YWJvdXQ9IiIKICAgICAgICAgICAgeG1sbnM6ZXhpZj0iaHR0cDovL25zLmFkb2JlLmNvbS9leGlmLzEuMC8iPgogICAgICAgICA8ZXhpZjpQaXhlbFlEaW1lbnNpb24+MTM0PC9leGlmOlBpeGVsWURpbWVuc2lvbj4KICAgICAgICAgPGV4aWY6UGl4ZWxYRGltZW5zaW9uPjgzODwvZXhpZjpQaXhlbFhEaW1lbnNpb24+CiAgICAgICAgIDxleGlmOlVzZXJDb21tZW50PlNjcmVlbnNob3Q8L2V4aWY6VXNlckNvbW1lbnQ+CiAgICAgIDwvcmRmOkRlc2NyaXB0aW9uPgogICA8L3JkZjpSREY+CjwveDp4bXBtZXRhPgqelsGIAAAAHGlET1QAAAACAAAAAAAAAEMAAAAoAAAAQwAAAEMAAAkdf1lDrgAACOlJREFUeAHs3WuMFeUZB/BHAb8jIYt12QuKRRFKi21JRK62TQtpLFRbavqhEYLYUiTBS42pMb0jLfVLW8Oml5hoFSQ1RkUjLV/agpVLqxQRuUUp24TtfiHCbkPxzMDZdG/s7uGcszm8v0lmZ2fOvDPv/OZJTv5n5sy57GxhCAMBAgQIECBAgAABAgQSFrhMMEr47Dt0AgQIECBAgAABAgRyAcFIIRAgQIAAAQIECBAgkLyAYJR8CQAgQIAAAQIECBAgQEAwUgMECBAgQIAAAQIECCQvIBglXwIACBAgQIAAAQIECBAQjNQAAQIECBAgQIAAAQLJCwhGyZcAAAIECBAgQIAAAQIEBCM1QIAAAQIECBAgQIBA8gKCUfIlAIAAAQIECBAgQIAAAcFIDRAgQIAAAQIECBAgkLyAYJR8CQAgQIAAAQIECBAgQEAwUgMECBAgQIAAAQIECCQvIBglXwIACBAgQIAAAQIECBAQjNQAAQIECBAgQIAAAQLJCwhGyZcAAAIECBAgQIAAAQIEBCM1QIAAAQIECBAgQIBA8gKCUfIlAIAAAQIECBAgQIAAAcFIDRAgQIAAAQIECBAgkLyAYJR8CQAgQIAAAQIECBAgQEAwUgMECBAgQIAAAQIECCQvIBglXwIACBAgQIAAAQIECBAQjNQAAQIECBAgQIAAAQLJCwhGyZcAAAIECBAgQIAAAQIEBCM1QIAAAQIECBAgQIBA8gKCUfIlAIAAAQIECBAgQIAAAcFIDRAgQIAAAQIECBAgkLyAYJR8CQAgQIAAAQIECBAgQEAwUgMECBAgQIAAAQIECCQvIBglXwIACBAgQIAAAQIECBAQjNQAAQIECBAgQIAAAQLJCwhGyZcAAAIECBAgQIAAAQIEBCM1QIAAAQIECBAgQIBA8gKCUfIlAIAAAQIECBAgQIAAAcFIDRAgQIAAAQIECBAgkLyAYJR8CQAgQIAAAQIECBAgQEAwUgMECBAgQIAAAQIECCQvIBglXwIACBAgQIAAAQIECBAQjNQAAQIECBAgQIAAAQLJCwhGyZcAAAIECBAgQIAAAQIEBCM1QIAAAQIECBAgQIBA8gKCUfIlAIAAAQIECBAgQIAAAcFIDRAgQIAAAQIECBAgkLyAYJR8CQAgQIAAAQIECBAgQEAwUgMECBAgQIAAAQIECCQvIBglXwIACBAgQIAAAQIECBAQjNQAAQIECBAgQIAAAQLJCwhGyZcAAAIECAyfQMuGX0XLhidi6bLlhfHu4euIPRMgQIBA8gKCUfIlAIAAAQLDI1AMRePGjYvW1lbhaHhOg70SIECAwHkBwUgpECBAgEDVBYqhKNvxmvsejHWP/TjvgytHVT8VdkiAAAEC5wUEI6VAgAABAlUV+P9QtORrd8aqe9fkwWjTxmfyfghHVT0ddkaAAAEC5wUEI6VAgAABAlUR2LXzjWhpeSKyaTZ85rOfi+99/9yVomx+yVcWxeHDh7N/4xPTb4qlS5fn03yBPwQIECBAoMICglGFgW2eAAECBKLwgIVzD1koWowZMyaef2FLjBw5srgo2traYsHnb+2az/5x9agbhxkCBAgQqKCAYFRBXJsmQIBAygLZlaFtf9oaf/nrn+P9997rRvHiy69FFo56Dlmbe1Ys67a4oaEhZt4yO2bOnOUKUjcZMwQIECBQTgHBqJyatkWAAIFEBTo7O+Po0SNx9MjhOFIYt2x5qVcYKtK0/Pp3ceONU4uzvaZZOLr/vtVx8uTJXq9NmnR9ISTNioaGxmhqao5rrp0YI0aM6LWeBQQIECBAYKgCwxaM9v1zbxw6dDB/4zz2r/fjxIkTQ+279QnUjMCBd/bHxOs+WjP91VECQxH4d+vxOHbs2IBNsu8N/eKXGwZcL1vh73t2x/r1j8Xb+/ZdcP0Rl18e4xsb48ore199umBDLxKoEQHvHzVyonSzZIG6urr8w66rrvpINDY2xfU3TC55WxfbsKrBqL29Pb+tYtu2rbFj+/aL7bv2BAgQIFAjAqV8V+js2f/Fpk3PxnOF8cj5hzLUyOHqJgECBAiUKPDpGTNizpz5MWfu/Bg9enSJWymtWdWC0fN/2By//U1LHD9+vLSeakWAAAECNSVwxRWjYtbsubFo0e0X9d2gU6c+yMNRFpC8h9RUCegsAQIEShbIriBlH6otWPjFkrcx1IYVD0aHDr6bP571j1tfG2rfrE+AAAECNSjwsWnTCp/2zctD0dVX15ftCNrb/5MHpP3734633vxHZHchGAgQIEDg0hZYWAhGdxUCUhaUKj1UNBjt3r0zHn3k4Whtbe33OEaNGhlTpk7r93UvELgUBNwjfimcRcfQn8D4+vFx7cTr8nvDG5uaoq5uXH+rlnX5gQPvRPZ91T17dl3wfaasO7UxAlUW8P5RZXC7q6hAZ0dHdBTG06dP52NHx6l82tn53wvut76+PlZ+e3XMLnzoVsmhYsFo83MbY+1Pfthn3+fOmx+TJt0QU6ZMvajbK/rcuIUECBAgQIAAAQIECNSUQPZE0l27snFn1w+B9zyA+x94KBYtvr3n4rLNVyQY9fwhv2Jvv7BgYSz+8h0xefKU4iJTAgQIECBAgAABAgQIdAkcfPdAvPLKy/FqYex551kpD/Pp2vAA/5Q9GG189un46bq13XY7b/6teSCaPv2T3ZabIUCAAAECBAgQIECAQF8C2e/ZZeHo8fXroqPwe3nF4ffPbI6m5ubibNmmZQ1G2XeKVixf2tW5CROuiW+uXBU333xL1zL/ECBAgAABAgQIECBAYLACb/zt9Xjkuw9FW1tb3mTs2LHxwouvDrb5oNcrazBatXJF7Nhx7veJslD0gx+tjebmCYPujBUJECBAgAABAgQIECDQl8Bd3/h67N37Vv7SV5fcGfeuXtPXaiUvK1swevqpJ+Pxn/8s74hQVPL50JAAAQIECBAgQIAAgX4E7lmxrOvhDA9+5+G47UuL+1lz6IvLFoxmfOrj+d6FoqGfBC0IECBAgAABAgQIEBhY4MyZM7HyW3d3haPtr+8euNEg1/gQAAD//+qP2dYAACTbSURBVO2dB5gURRbHH0HQ81QMKIoB9M6AnpjIWRQERZQkQZScM4KASA6Sl5wzkpQskiUpWUDvjIgoqHCCIigGVPbqX3vVdvfM7M7uTk/81/ftTnd1dXXVr3p63ut69V6WZJUkBKlo4ft1LQsWLZH8+W8NQY2sggRIgARIgARIgARIgARIgAScBI4dOyo1q1fVmbv2HHAezMRellApRploA08lARIgARIgARIgARIgARIggYgSoGIUUfy8OAmQAAmQAAmQAAmQAAmQQDQQoGIUDaPANpAACZAACZAACZAACZAACUSUQFgUo9VvrJQZ06fK77//HlRnL7roIqtctmzZ5JK//U3uvbegFC5cVAoVLiIXX3yxdTyaNxK134c/OyRdu3QKerwxhmbMMd45cuSQ/LfeKkWLFpdixUvIVVddHc3DzLaRAAmQAAmQQMgJJKoMkVGQQ18ZKLt37wpa9rDLHbhmriuvlEKFCms5s2DB+yVLliwZbUrUn0c5LfAQhUUx6t+3l6xevSpwK9JxJG/eG6VX735S8L4UZw/pODXsRRO133iY9+/XO2S8e/TsLVWqVI3rh1TIYLEiEiABEiCBuCCQqDJERgevUsXycvr09xk93XEeXsx26/Gy5MmTx5EfLzuU0wKPZFgUoy+//EK++uqYnP/tvHz00QcyZ/ZMR4uaNmsp+fLnl6xZsgpmDC4kX5A///xTfj9/Xr744ojMmjndUR474yZMloceKuyTH00ZidrvH06fVuP8oZz//bz8fO5n6dunp2NYHq1QUcqUKSdZs2aTbNmz6WN//vGn/PHHH/qhNnnSBPn553OOc3CPNG7SzJHHHRIgARIgARKIVwKJKkNkdDz//f57cubMD/Kbkh3fWLVCdu54x6rqb3+7VNq26yCXX3GFZMuaVcsfFy6kyB2//fab7FEzTevWrbHKYwPnvLZkhVx9dfxZrVBOcwy1YycsipH9iu+8s106d2xnZWEGaMmy1GeTDh36VJ/z7bf/tc678sqr1Hkr9Y1rZUbxRqL2+8cfz8qj5cs4RmbV6nWSO/e1jjz7Dr6wvXr10A8qe/6MWfOkQIG77VncJgESIAESIIG4J5CoMkRGB3b8uDEyd85fL+GrVa8pXV/skWp1mzZtkJe6d3WUKVmqjAwfkeTIi7cdymnOEQ27YoTZgJkzplqtqPVMHenU2XkjWgdtG9OnTZGpUybackTGjp+s7UEdmVG6k6j93r17p7Rv28oalZtvvkUWv77c2g+0sf/dfdKqZVPH4SZNm0uTpi0cedwhARIgARIggXgnkKgyREbHtUmj5+Q///m3dforQ4ZL2XLlrf1AGy2aNZaDB/c7Dm/ZtjNm1rY7Gh7kDuU0J6iwK0bNmjaU9987aLViyLCR2qzKygiw4U9Q7tipizxTu26AM6IrO1H7PW3qZJk2dZI1GHXqPivtO3S29gNtwFFHqRJOU8nSZcrK0GGjAp3CfBIgARIgARKISwKJKkNkZDB//fVXKVu6mOPUNes2CSyN0kpTJk/QzsLs5WbPmS933HmXPSuutimnOYczrIqRv5t17bq3tCcQZ7N896D54w2APQ0bniSlSjvNtOzHo2U7UfsN/u63L1BsoOCklS5cuCDFiz7oKFanbn2lVHVy5HGHBEiABEiABOKZQCLLEBkZV/eL9Pz5b5UFi5YEVdW8ubNl3Fin6VywcmpQF4jCQpTTnIMSVsXowIH90rJ5Y6sF6blZ/WnxGzZtk8suu8yqL1o3ErXfWNBYplRRx7CsXb9ZcuXK5cjzt7N3z25p28ZpNpc0erwULVbcX3HmkQAJkAAJkEBcEkhUGSKjg4nlGjA9NClYSxWUd5vgYV0z1jfHa6Kc5juyYVWMZs2cJpMmjrdaEezNeuL4calbp6bDU1mJEqVkxKgxVl3RvJGo/YadLt5EmBSsInxeeZRp07q5w+QS3mFWr9kgl1xyiamOnyRAAiRAAiQQ9wQSVYbI6MC2adVc9u3bY50erKWK28EFKmjXvpPUrVffqiveNiin+Y5oWBWjjNys8FAG29qjR7+0Wg8heeHiJXLttddZedG8kaj9hpv1SRPHWUMTjCIMN+29enYXeIexp1FJ43SwV3set0mABEiABEgg3gkkqgyRkXH1OwMSxJINf8s17i14n0yYOFWyZ8+ekabExDmU03yHKWyKUUZu1lMnT0rnzu3lk48/sloOZWhk0lj5xz/+aeVF80ai9htj4n6Yp+VoA3bUSaOGy/JlTlvg/gNeEcQ+YiIBEiABEiCBRCKQyDJERsb5vYMHpHmzRtapwViqQClq16alwyoJcTIHvTJULr/8CquueNygnOY7qmFTjNw3a2pum+G1bsnri32CbVWq/Lie1gzGs4hvVyOTk6j9hjlc6ZJFHNDfXLtRrrrqakcedr46dkxWrFimx9we2PWee/6l4w7cfsedPucwgwRIgARIgATinUCiyhAZHVf3DEigkDDwfLt921ZZvGiBj3vuZs1byXPPN4zrmSLwpZzm/y4Lm2LkvlnRHJjEuZNdMDbHqteoJVWrPi2xKCAnar/dD3OMZbDjXb78owIluETJ0pIlSxZzG/CTBEiABEiABBKKQKLKEBkdZPcMCOpxyx7+5ExYIz2p5Mynnq4u11xzTUYvH1PnUU7zP1xhU4z83az+m+SbCzvPes8+F1S8I9+zI5uTqP329zAPdiQwm4gHVO069eL+jU2wTFiOBEiABEgg8QgkqgyRkZH2Z3aYnnoQSgSzRbGyVCM9ffNXlnKaPyoiYVGM/N2sb7y5IaBWjgX48EP/yuAB8vXXX1ktx0xC3/6DghKWT5w4ISdOfCP33feAdX64N8LV7+TkZNXX4/LFkSOaTd4bb5Q8ea6XrFmzhrvL1vXcD/NBg4fJw+UfsY67Nw4d+lS713x7+1brEGyDRykX3Xny5LHy3BsY58OHD+ns667LkzAPNDcH7pMACZAACcQXgXDJEKD2448/yieffCTnzp2TvHlvzNBv6eHDn8nCBa9K5ceryP33h1/2cntYS23JBvqMvm7ZvEn69+uNXSul5YkOcRbhEOyLL47IxTkvlnsLFvSZlTKVQZ6Fh7y77irgs14J9Rw7elR+/fWXiASQDZec9rtaWgEZ79tv/ytX5LpSCqrJjmDl019+/lmOHPlcTp46KblzXyu3335HUDqA4Z+Rz7AoRm4f/PjSLVm2Ks32/vDDD1LtqSccC+Jg99mqdbuA5545c0ZWv7FSEMn3uuuuCzqoV8AKM3EgHP3Gg2hg/z7y4YcfOFoKpaJ9h84Rifvj72G+avU6fVM7GunawQOkY4c2smf3LusIZgsnTpom2bJls/KwcezYURkyeKDDJSfyMR3eqXMXKVuuPHaZSIAESIAESCAmCYRDhsDv7uuvLZJRI4c5GBUuUlSv6Q529gRrdho+X08+++yQ9Hipl7b6cFQYhh13/KJq1WvqdcppXdrNGeUDecL98ssvZPDA/o51STDVe75BI6n/XAMfgR/hZp6qWlk3AfLJv+4tqOWUQ59+YskvJUqEP/xMOOQ0dHrXzh0yaGA/rRRpCOofFNbWbdunagX2xx9/yLy5s2TO7FkOHQDnwpEXZFyvUlgUI5+btVoN6drtpaD69Oq8OTJ2zChHWXeQUGiic2bPUBr8UYcHO4ALNtqx4wIh2vG634fVA6he3Vr6S9agYWO5VimCcFwxZ/ZMqwe9+wzQ63WsjDBsuB8ywSrCaNoHyjtM40bPOVo5bHiSlCpdxsqDt8L6z9bW+9Wq11BuvEtKVrUWKSlphBX7qEPHF7QpnnUSN0iABEiABEgghgh4LUNAKWrftpUW0CFwNmjURB544CFZtPBVWTB/nsDR1dx5C+Wa3LnTpDZj+lSZMjklqGqkFKNWLZtqayPT2PR4tMVL2Z073jGn6hmzefMXW/vYgJDfoX1rnVezVm2pUqWqnP3xrFaUYN3UpGlz9ecMTA/nUjWqP+mox77zwIMPycBBQzRre77X217LaWj/tKmT9CSFURwfebSC7Nu7RwYP6q+7N3bcJClU2OmkCwcwS9SjR1c9HrgvW7VpJ/+47Z8yccJYHcrljjvvktlz5us6vPgXFsXIfbP26z9YKlR8LKj+vP32NnmhU3tH2bHjJ0uhQoWtvA3r18nIEUPlttv+IXffc4/MnjVDH4u0YuR1v+s8U11PMS5f8abkuf56i4eb2etLVsqNN91kHfd6w/6AxLWwmLFb955BXdaflxT3w2b82NEyV71JwJdt4qSp1hQ0ZpFqVq9qXWdtELELrMLcIAESIAESIIEoIuC1DDF92hSZOmWi7vGrSgm4zRYGxSgKWI4wacr0VKlgluhZ9ZLWpEgoRgj3UbZ0MdME/bl85ZpUTfHthceNTVIzFLPtWbJl2065+OKLdd53332n5Qs4bij/SAWtzJjC9hhI4yZMFrj6Nunrr76S6tWqmF3rE/ILHIs1b9HKc9Mw66K2Da/lNJgPwlQPCRMh1dSEiEngDN5gsFRZj+W68kpzSH927thOEGy3QIG7JWnMeG2CCCW+RLGHrHJvbXk7oPmiVSiDG54rRn5vVpcgn1rbt2x5S7p17ewo0qfvAHms0uOOPPvOk088pqftIqkYed1v+/QstOeZs+Y5pnA7tGstu3bt0FiaNmspjZs0syPydLtFs8aOaea+/QZKxcdSppLTujBMISs+WtZR7Mknn5IePf+yAW7XtqVlbmdXutxfHLcC7aiUOyRAAiRAAiQQpQS8liFgefHE4xV072GyPmXqX5YmyMTam24vvqCPL3ptmdxySz697f4HkydYedjjTUZCMcK6dCiSJsFsbeUba81ump+IoYj1Ufa0dPkbcsMNeXXWiOFD5LXFC/W2v5mOWjWe0uuO4FEXljomffPN13pJCOSYQoWLykUXZdcelk29ply4P72W0wwP9MuuYGL/+++/k8qPpaw5f0nJdlUUG5M2blgnPV/qpndHj50gRYqkKLuQ756oXEFOn/5eK0TrNmxWLC8yp4X003PFyK41ouXpvVndWi3qwPRmanav0aAYed1v90NgztwFDnfmRiMHr2De+KBcKNIvv/wi5coUd1S1bMVquf76Gxx5gXYO7H9XWrZo4jj8QpduUqPmM1aemZ5Fhv2Ye8o6rfvEqpAbJEACJEACJBBFBLyWIfbu2S1t26SYfSGAOszO7OnTTz6W5+rX0Vlt23XUnoHtx802LHRg4tS+QycZnTRSZ0dCMcK6csgGJrlfqJr8QJ/u2TnMZmx8a5v1wrlZ04aWqT6WaLjXuHTt0lG2bd2iq9/29m7JkSOH3jYvsfFyF22KhuS1nGZX6sERszvuVLTw/TqrWPESej2XOV796Sra6RqWYLy2ZIXFH8exln6HmkkqrpZPFLj7HnNKyD89V4zsQixaD80QGmIwCRpi08bPOxwLuG9Wf/VEg2Lkdb9x40HjxrQumKxd/5b1RQQTLKYcPizlQYdAqdNmzPGHKuR5e5X9aNvWKdOnqDy9ivCY0SNl/qtzHe1yP4Twhgp2qtmyZ5cHlX2u8W4Ck8qXe6a8afDHxFEpd0iABEiABEggSgl4LUPYZYTHn3hSXu7V10ECTgaeqfm0znMLr6bg558flrq1awiCqD6h6jCKVCQUI7vigvalZ321ffbM9M2uLMLzb7Eif3nZ87c8oW+fnrLmzdX69OlK3rpbyV1I8Jz71JOVtNVLtChGXstpWPdfv17Ky2ysU1uzbpNmYf9XqWJ5PfuDvB273tVynN0k064rQObLruS9cCXPFaMmaooV9pcm9erTXypXfsLspvq5YP5c6w2EKQgnAy1atjG7fj8zqhjBdeLp06fl6quv9ltvejLD0W+41/zww//IPffcK5de6gyWC/eT8M6H5O+hZ+9LKPuNxZeY5TMprWubcvj053gBSt3U6bPTDPSKPnTu1M5aPImHPK6dWgpVv+Hy080/0HWDLYsHAV4M5MyZM1BVVj6UZEwpuz33WQVsG8FeH6cEWzY9bU1P2VjqF9vqzf0Sr1zjtV/BPjO8er5Emiuu//vv5+Wyyy63PXUztum1DLFo4XzLE13FipV0KBR7S+2/x7DQcTsiMC+uT506JYsWL9WeYtOrGP2oHBfkyJEzqN85e9vc23hB/HDZko7sJUtXCUKXBJNe6NxB7KFCcI7djMutGC1arEwL8+VzVG3WZCFz+IgkKVkqxWGUXTHKp8wRd+/eKbBuuVaFF6n4WKVUrZ/sFwiVvII6vZbTYFb5/HN1dfP9zRjh3rGvF1q/cYteR2R3ttawUVO54oorZMXypXotPWbo4KihUeNmkitXLjua0G+rAfcsnT17NrlIofscf8pne1DXO3DgXcd5qKdpkwbJyiVkmudXebyiPrd2rWppljUFNr+1MVm5Btfn4VPFBDKH0v0ZqX6bhqpp0uTHKjxs8VPur80hn89Q9huVK3ed1nUxZm+sWuFzTX8Z//3viWTlOMFxbrkyJZJVfCZ/xXWeErKT9+9/N3n9urXJylOMPhfnKM8yAc8xB0LRb/W2LFl59NHXVT8IyalxVlPsybgfwaTLCx2S1YPRNMXnUwVdS0Y/UHbokEHJyq2mTxlknDv3U3K/vr10OYz34kUL/JZDZqTbijbEY79iaQzY1uTkSH8POQaRHwOvnoXKlMt6bisTteSfz53DYy9DKRwyhHLSpH87zG+Su6HLly2xjuP3xZ2UZYc+vmfPbn1ICcNWeSXMuos79tVL3eRePbtb5ceNSXIcT+/OjnfetupCf/y1N1CdatmB41ycP37caJ/i+I3HMfx9/NGHPsfNbzaOr1yxzDoOGQZ5RibDJ+4PU5dyZZ2sFAWrvL+NUMgr9nq9ltPOnj1j9Q/9dKcjRz53HFfxoHQRZeXkyAdT3BsbN65Pbt2ymT4G+fz48cByoftaGdn3dMbI7R0tGLMqaMVz58zSNqt2NTA9biPTO2ME7dUs6jLXhA//MWNTvLWYvGA/I9Vv0z67i0+8tcDbC38p1P325zgB8ary5k39rQ28j7z8UneHr3q0198CR3s/jh//Rp6u6nTCgRhXiCWQRbnvDpRC1W/71DmuhX66bWKR7+96VZ+qJt17vIzDjmQ3XzAHAjmvUEqnDOjfxxTTn/bFovYDkW5rvPYrlsaAbfV9zof7e8gxiPwYePIs/EKZndVKMTszz92Wrdrq2DZmPz2f4ZAhzNoXtMuf84WhrwyUpUtft5q9c/d+63fVrOeFpzETesW+JiktU7qVK5fLoAFO0z04f0A7MpLcHuXsZliB6oPFzSuDB8imjesdRSD7IYaR2wLDzsMtmyBwKeROkxCjp379BnrXbqZnDz1iwq2gEFx/d37hRV3e/c+f/JAZ+TRccppZK4T+uJ0v2Jc94DiWesA6qHu3F2TzW3+Z3dndrcPaBKadcIsOF+fjlHfqrFmz4vSQp5AqRgjI+o1q9C8qiu/ZM2dl+rTJOtiXaTW8p3VQQUdhK4gOZUGnlO3mBfV35swPet3Ipo0bHIGgcC5cH/YbMEiuuio4E7f0Kkb+hDZc952d+3y+HMh3p2jpN9plPKBgG9Pfk9XDJpCZV2b7jQBhSvMXRDWGCcUq9bDbtGkDLm0leIbLmSOHZM2WLeUm/v94//bbr3oh4/ZtWx1ryHAiFGgE8EKk6NSSehOgr4t2nFBKUq+Xe1hfmq4v9pB8+fL7PT2z/TaV2r/4Js/f9P3Jk9+KmsU0RfRnILtbu0cWc0Igc0Q1myRLl7xmiunPQKaqkW5rvPYrlsaAbY3895BjEPkx8OJZ6E/QT+2lpOOhrXYiJUOMVrH/EK8IaaEyhzO/mTAJrFenpv49xTG7ORReXrdR64iPfP65fhH497//HUUkPYpRn949Ze2alPU4+mT1DwHp69R91uym+gnhGMseEO/m+InjkjRyuOPFKtbyVHq8imRXcoddwYGSAdO2HTu2y9YtWxzn4IK4Pl6uwjTdnZRVi1StUklnu00PIfsMtCl6Xbp21664URiyUc+XXpSnn64hpcuU1eebf3YO/szzUC6z8kqk5LStWzfLi1066a66FWX3ywnjKMvucRjy69xXF1nKOCqyu5efOGma3P/Ag7r+UP8LqWIEt9pwrx2qBOER0YShTdtv7rTqT69iBAEbmujRo186qnb79XcctO1ES7/xBYRdMpQVvHkZMXJ0qrbOme23ffGmDUemNrGIE3GLLr/8inTXg7c2tWtVtx52bqcNpsLM9tvUY3ffiTx/dtjI93e9uvXq66jiOG5P/pQou72yvexbmzZKj+5d7Fny5tqNfl8gRLqt8dqvWBoDttX3OR/u7yHHIPJjEK5nIZSJTZu3OwQ7x8PathMpGQJrfNq0bqFdbeONfcPGTeU6tfYFL7Xtb+7tv23L1CzSEDWbhFkVOGUwKT2Kkb/vQfnyj8rAwUNNdQE/1XIKFdKjnPU7H7BgOg7gpX3TZi2kZMnSqZ6FddtYv43UomVrKVuuvBz69FPL6ZM5OdBvtjluPpe8vliGDR2sd597vqFWyswx8+lPfsCxYOXTSMppmBXESwPI8q1at9VyKWaL7N4D0RezxsiuMNlnI1EGCeuNTHDYjp26yDO1U9YxpRwN3f+QKkZuryAZaSZuUMwUYJFVmTLlMuSJwihGiJi7+PXlQTUDDiJmKqcBMOsyCbMWaENaKRr6jWlGtXZFOx/Am6oBA1+xApOl1v7M9HvypAkCs73MJJif4YH8r3sL6oWImV20al8Amdobu8z02/QXU+QzVP8xa1OiRClpoh6sgWa5PvzgP6rsNL3AE1/4xio6diAnH3hwzJ41XXRAOfVSAC8H/L0YwA/EvLmzZPGihbou/Kjhx8VfinRb0aZ47FcsjQHbqty9Rvh7yDGI/Bh49SzEDMgCFQfHHs8n2CDjkZQh4Lp56JCBlkc1PKux0B2xD008Gcx0DB02yvKwVu7h8trrm7b8wQkqffLpJ/rFLLZhsVGligq2rkza/c2+4HsAN99QDDCjAecJwcadhCkYTOhxTkYTlNY777pL7rjjLilbtpwUvC/FdXQw9cF5wsD+fR2WTVCS/v3++5b8OHvOfCvwPOrEDJwJFGu/ht2SwjC2HzfbmZFXIimnQambN2+2kq2nWeMF9oOUAqzWhZvuya49B/T2hPFjZM7slHhardtgWURDqww21q19U3r3eknnueNFOQpmciekilEm2xKy0zOiGNkvbjyUJI0eL0WLFbcfispt3HxYa4K3GZhCfrF7T0uQfu/gAcGDL5h+xEq/EesI/uzLln3Yx+uM3dtKsG/sYqXfUXnzsVEkQAIkQAIWAZhrGY9biN+C36FYSFBQsO7lKrVkIc/11+uXrHjRiGS8AcMdNd7qB5sCmYzbz/9YeTBroDyYFShwt8xQgepjJcEk77tTJ+Wft9+hQ6XAC5tRijds2qqtdXAvNFfxj6DY+FtHhLhHiH+EhBfEwYRViUV5BeaXsGTC0pn8t96mlKSf5ZGHS+l+28fdPrsF5bpa9Zq6jPlnX5uEJTbjJkw2h0L6ScXIhRMD+MjDpbV2u3zFm/oB4SoSdbvmjUCduvWlbbsOjgVpnTu2U2u4LjgCaPnrQKz0G4pe82aNdBfwg+OO3+QO8mb84/vrM/Jipd+B2s98EiABEiCB6CFgTMqCcTYV6VbD0uS99w7oAOw33JDX0RysPcIaJKRFryn31Lfk026m161b4yhndg6pGSOzlALWGrCeuOSSSwTmqqml1xYvFJg3BnKEktq54T4GZejYsaNy//0POKyZsM66YoWHtdxon8n49/vvifKmbDXTrSjbFU281EYQ2NRSrMkriGcEa5dblTJkTx999KEoz3g6C3FN4SwDyR50uF37Tj73jn0tl3udl64gVP/UbEPcJeOuG+6f05vUQGqXgGrhYXpPjUh5Zcal2zt1yiSf66vpW+0+NGnUCJ9j7oxY6bfbtebhw585uqLsTy13j3DhnVaKlX6n1Q8eJwESIAESiDwB9dZb/wYppSLyjUmjBUohsX4v3S6QTXgJhKQIJiFshnFBnZa7bnt9Pbp10edt37bFnh112ydPnrT6N2TwAEf7Nm/eZB17/72D1jG4hjdM4G7anSZNHG8dVwqi+7DPfizJK3AxbvqOe8OeRo0cpo/BHbeaPbIOKUXdcmuuHNVY+WbDuIhHvem5x8z5wX5iYXjcpcwoRuZLipgE0Z62b99q3XjwsQ/f9PjDNh5qxm++WiyZZldipd+7du1w9Fm9QbH6dl7F+zF91l8cWywBq5BrI1b67Wo2d0mABEiABKKMAOJUGfnj3X17o6x1vs1p3rSR9Xt68MB+q8DWLZutfLugbxXws6HWWFnnBCNzoAp77CO7gOyn+ohn7du3x+qfXclRJojJjRvW18c6d2rv007D+KeffnIcQ39N7EzILe7jjsL/34kleQUytFGMZs6YZnVHeU624n1B0XEnlMV5YIJ4V/ZkYhlBoUKsJK9SXJjSff3VV7JixVJtFgU3jnZvKliHcuNNN+lpT0zppubtTGm1yuVzdz0ZF0z8nVDN2mWkHhNHIJhzx0+cIg8+WChg0VjqN6aSm6mpadjsPlqhojRp0kJuuvlm+emnH3UUb0xNI8EZwjAVvwmLQwOlWOp3oD4wnwRIgARIIDoIIC6OCoyqHQnA1TBCk0RzMh76YJa+bMVqgevtDevXCtxII7k9z7n7ogRTmTRxnHagoIKsWp594VSpRMlSctNNN+u1Ne7zsH9emZ89X7+OXntSvUYtgYvraE6nTp1S8S5TnBvBtXjtOvVUeJqvZeSIodrpAmILIU5Rzpw5Hd1ASBI4xoIHvwYNGuu1VN98840kJQ3X67hQePTYCVKkSDHHee6dWJNXIIcjLhHS1GmztIOtgwf3S/++vbUb+EbKWVSz5q3c3VRu2L9X90Vd7dwCzqQQEyr3NbnldeWow5h2BsPLp+J0ZMSFYnTgwH5p2byxY5EjPJbYFz1if+bsVwN6DYM74WdqVtM2onYf9OlgGdaie/fukbYqlkAw6Y3V6+Wa3Ln9Fo21fqMT6k2BdtloV4DtnUNgteYtW6f6oxSL/bb3kdskQAIkQALRQ2DnjnfEOCuYM3eB3H7HndHTuAAt+f7770S9hU9ZGG8rA9mpT98BPnF3bEX0JhSjYkUecMha9jJQEtas22TPsrbHjxsjc+fM1HELFy5eErAO64Qo2Fgwf64Szkf6tARKz6DBw/SaKp+DKmPRwvn6xa37GBTIfv0Hyd3K8UJqKRblFTieQGxJdwBd9LNho6bSvIWvUmQYqFkl6dCutaVom3x8BusK3X5OerfjQjFKb6f9lccXFF9UeLoYM25iqjMN/s6P1bxY7jeUXXinwwJHZZsqWDyKBxS86qSVYrnfafWNx0mABEiABMJLAIKcMvXWAh8Ev1hKcCiwe9dOgQB+iwqMXrp0WT175FUf8HtdsniKFYuXgTq9aD9cbyuzQzlw4F1tgQRX3/Aol1ZCgFjMqmG2CKE6blfe7ArcfY9fN97uumJZXsEM0N49e0Stj1Ixsq6T4iVKalnN3Uf3PqyDlDmq7N27G87sVPDhfEpRL6e8/V3mLhryfSpG/0eKCMqrV6+SSpWfkEsvjQ33mqG4G9jvxBrvUNwzrIMESIAESMBJACb9EJYrP14lYV6sOgmkb2//u/sEswqIWcmUOoFEldNSp+LdUSpG3rFlzSRAAiRAAiRAAiRAAiRAAjFCgIpRjAwUm0kCJEACJEACJEACJEACJOAdASpG3rFlzSRAAiRAAiRAAiRAAiRAAjFCgIpRjAwUm0kCJEACJEACJEACJEACJOAdASpG3rFlzSRAAiRAAiRAAiRAAiRAAjFCgIpRjAwUm0kCJEACJEACJEACJEACJOAdASpG3rFlzSRAAiRAAiRAAiRAAiRAAjFCgIpRjAwUm0kCJEACJEACJEACJEACJOAdASpG3rFlzSRAAiRAAiRAAiRAAiRAAjFCgIpRjAwUm0kCJEACJEACJEACJEACJOAdASpG3rFlzSRAAiRAAiRAAiRAAiRAAjFCgIpRjAwUm0kCJEACJEACJEACJEACJOAdASpG3rFlzSRAAiRAAiRAAiRAAiRAAjFCgIpRjAwUm0kCJEACJEACJEACJEACJOAdASpG3rFlzSRAAiRAAiRAAiRAAiRAAjFCgIpRjAwUm0kCJEACJEACJEACJEACJOAdASpG3rFlzSRAAiRAAiRAAiRAAiRAAjFCgIpRjAwUm0kCJEACJEACJEACJEACJOAdASpG3rFlzSRAAiRAAiRAAiRAAiRAAjFCgIpRjAwUm0kCJEACJEACJEACJEACJOAdASpG3rFlzSRAAiRAAiRAAiRAAiRAAjFCgIpRjAwUm0kCJEACJEACJEACJEACJOAdASpG3rFlzSRAAiRAAiRAAiRAAiRAAjFCgIpRjAwUm0kCJEACJEACJEACJEACJOAdASpG3rFlzSRAAiRAAiRAAiRAAiRAAjFCgIpRjAwUm0kCJEACJEACJEACJEACJOAdASpG3rFlzSRAAiRAAiRAAiRAAiRAAjFCgIpRjAwUm0kCJEACJEACJEACJEACJOAdgf8BbIxCXQK5o10AAAAASUVORK5CYII=;" vertex="1" parent="1">
          <mxGeometry x="60" y="30" width="687.91" height="110" as="geometry" />
        </mxCell>
      </root>
    </mxGraphModel>
  </diagram>
</mxfile>
